<?xml version="1.0" encoding="UTF-8" standalone="no"?>
<!-- Created with Serif DrawPlus 11, 0, 0, 18 (Jul  5, 11:10:22) (http://www.serif.com) -->
<svg version="1.1" xmlns="http://www.w3.org/2000/svg" xmlns:xlink="http://www.w3.org/1999/xlink" width="794" height="559">
	<g id="Layer_1">
		<path id="dp_path001" fill="white" fill-rule="evenodd" fill-opacity="0" stroke="#0800ff" stroke-width="6.66667" d="M 164.733,177.348 L 565.112,177.348 L 565.112,470.033 L 164.733,470.033 Z "/>
		<path id="dp_path002" fill="white" fill-rule="evenodd" fill-opacity="0" stroke="black" stroke-width="6.66667" d="M 483.221,94.9613 L 640.905,94.768 L 641.113,264.533 L 483.429,264.727 Z "/>
		<path id="dp_path003" fill="#ff0c00" fill-rule="evenodd" stroke="#ff0c00" stroke-width="2.66667" d="M 484.16,258.497 C 487.473,258.497 490.16,261.184 490.16,264.497 C 490.16,267.811 487.473,270.497 484.16,270.497 C 480.847,270.497 478.16,267.811 478.16,264.497 C 478.16,261.184 480.847,258.497 484.16,258.497 Z "/>
		<path id="dp_path003" fill="#ff0c00" fill-rule="evenodd" stroke="#ff0c00" stroke-width="2.66667" d="M 564.712,172.004 C 568.025,172.004 570.712,174.691 570.712,178.004 C 570.712,181.317 568.025,184.004 564.712,184.004 C 561.399,184.004 558.712,181.317 558.712,178.004 C 558.712,174.691 561.399,172.004 564.712,172.004 Z "/>
	</g>
</svg>