<?xml version="1.0" encoding="UTF-8" standalone="no"?>
<!-- Created with Serif DrawPlus 11, 0, 0, 18 (Jul  5, 11:10:22) (http://www.serif.com) -->
<svg version="1.1" xmlns="http://www.w3.org/2000/svg" xmlns:xlink="http://www.w3.org/1999/xlink" width="794" height="559">
	<g id="Layer_1">
		<path id="dp_path001" fill="#f6ff00" fill-rule="evenodd" stroke="#f6ff00" stroke-width="1.576" d="M 396.788,280.536 L 491.525,280.536 L 491.525,345.872 L 396.788,345.872 Z "/>
		<path id="dp_path003" fill="white" fill-rule="evenodd" fill-opacity="0" stroke="#848484" stroke-width="1.576" d="M 784.04,9.20933 L 784.228,76.424 L 12.2013,78.8373 L 12.012,11.624 Z M 784.417,143.637 L 784.608,210.852 L 12.58,213.265 L 12.3907,146.051 Z M 784.796,278.065 L 784.985,345.279 L 12.9573,347.693 L 12.7693,280.479 Z M 785.175,412.492 L 785.364,479.707 L 13.3373,482.12 L 13.148,414.905 Z "/>
		<path id="dp_path002" fill="white" fill-rule="evenodd" fill-opacity="0" stroke="#848484" stroke-width="1.576" d="M 105.708,11.236 L 202.463,11.236 L 202.463,549.069 L 105.708,549.069 Z M 299.219,11.236 L 395.973,11.236 L 395.973,549.069 L 299.219,549.069 Z M 492.728,11.236 L 589.484,11.236 L 589.484,549.069 L 492.728,549.069 Z M 686.239,11.236 L 782.995,11.236 L 782.995,549.069 L 686.239,549.069 Z "/>
		<path id="dp_path004" fill="white" fill-rule="evenodd" fill-opacity="0" stroke="black" stroke-width="7.88" d="M 10.8027,10.2347 L 785.209,10.2347 L 785.209,548.917 L 10.8027,548.917 Z "/>
		<g id="dp_group005">
			<path id="dp_path007" fill="#6189ff" fill-rule="evenodd" stroke="#6189ff" stroke-width="1.576" d="M 302.093,302.403 L 335.273,290.276 L 340.82,307.125 L 307.64,319.252 Z "/>
			<g id="dp_group008">
				<path id="dp_path009" fill="none" fill-rule="evenodd" stroke="#3700ff" stroke-width="1.576" d="M 304.412,311.101 L 338.132,298.857"/>
				<path id="dp_path010" fill="none" fill-rule="evenodd" stroke="#3700ff" stroke-width="1.576" d="M 328.771,292.335 L 337.369,298.808"/>
				<path id="dp_path011" fill="none" fill-rule="evenodd" stroke="#3700ff" stroke-width="1.576" d="M 334.819,309.269 L 337.597,299.339"/>
			</g>
			<path id="dp_path012" fill="none" fill-rule="evenodd" stroke="red" stroke-width="1.576" stroke-dasharray="3.7824,3.7824" d="M 322.384,304.181 L 460.735,254.587"/>
		</g>
		<path id="dp_path013" fill="#11ff00" fill-rule="evenodd" stroke="#00a60b" stroke-width="0.788" d="M 287.751,285.109 L 288.779,288.596 L 289.172,289.929 L 290.444,289.928 L 293.773,289.929 L 291.081,292.084 L 290.049,292.907 L 290.444,294.241 L 291.472,297.727 L 288.779,295.572 L 287.751,294.749 L 286.721,295.572 L 284.029,297.727 L 285.056,294.241 L 285.451,292.907 L 284.419,292.084 L 281.728,289.929 L 285.056,289.928 L 286.329,289.929 L 286.721,288.596 Z "/>
		<path id="dp_path014" fill="#11ff00" fill-rule="evenodd" stroke="#00a60b" stroke-width="0.788" d="M 383.892,216.557 L 384.92,220.045 L 385.313,221.379 L 386.585,221.377 L 389.913,221.379 L 387.223,223.533 L 386.191,224.355 L 386.585,225.689 L 387.613,229.176 L 384.92,227.021 L 383.892,226.197 L 382.863,227.021 L 380.171,229.176 L 381.197,225.689 L 381.592,224.355 L 380.56,223.533 L 377.869,221.379 L 381.197,221.377 L 382.469,221.379 L 382.863,220.045 Z "/>
		<path id="dp_path015" fill="#11ff00" fill-rule="evenodd" stroke="#00a60b" stroke-width="0.788" d="M 384.467,352.447 L 385.496,355.935 L 385.888,357.268 L 387.161,357.265 L 390.489,357.268 L 387.799,359.423 L 386.767,360.244 L 387.161,361.579 L 388.188,365.065 L 385.496,362.909 L 384.467,362.087 L 383.439,362.909 L 380.745,365.065 L 381.773,361.579 L 382.168,360.244 L 381.136,359.423 L 378.444,357.268 L 381.773,357.265 L 383.045,357.268 L 383.439,355.935 Z "/>
		<path id="dp_path016" fill="#11ff00" fill-rule="evenodd" stroke="#00a60b" stroke-width="0.788" d="M 481.76,283.289 L 482.788,286.776 L 483.181,288.109 L 484.453,288.108 L 487.783,288.109 L 485.091,290.264 L 484.059,291.087 L 484.453,292.421 L 485.481,295.907 L 482.788,293.752 L 481.76,292.929 L 480.731,293.752 L 478.039,295.907 L 479.065,292.421 L 479.46,291.087 L 478.428,290.264 L 475.737,288.109 L 479.065,288.108 L 480.339,288.109 L 480.731,286.776 Z "/>
		<path id="dp_path017" fill="none" fill-rule="evenodd" stroke="black" stroke-width="1.576" stroke-dasharray="3.7824,3.7824" d="M 321.14,304.559 L 444.569,312.081"/>
		<path id="dp_path018" fill="none" fill-rule="evenodd" stroke="black" stroke-width="1.576" stroke-dasharray="3.7824,3.7824" d="M 321.647,304.376 L 349.465,245.167"/>
		<path id="dp_path019" fill="#ff6666" fill-rule="evenodd" stroke="#bf0300" stroke-width="0.788" d="M 383.707,233.613 L 384.736,237.101 L 385.129,238.435 L 386.401,238.432 L 389.729,238.435 L 387.039,240.589 L 386.007,241.411 L 386.401,242.745 L 387.428,246.232 L 384.736,244.077 L 383.707,243.253 L 382.679,244.077 L 379.985,246.232 L 381.013,242.745 L 381.408,241.411 L 380.376,240.589 L 377.684,238.435 L 381.013,238.432 L 382.285,238.435 L 382.679,237.101 Z "/>
		<path id="dp_path020" fill="#ff6666" fill-rule="evenodd" stroke="#bf0300" stroke-width="0.788" d="M 481.785,300.564 L 482.815,304.052 L 483.207,305.385 L 484.48,305.384 L 487.808,305.385 L 485.117,307.54 L 484.085,308.361 L 484.48,309.696 L 485.507,313.183 L 482.815,311.028 L 481.785,310.204 L 480.757,311.028 L 478.064,313.183 L 479.092,309.696 L 479.485,308.361 L 478.455,307.54 L 475.763,305.385 L 479.092,305.384 L 480.364,305.385 L 480.757,304.052 Z "/>
	</g>
</svg>