<?xml version="1.0" encoding="UTF-8" standalone="no"?>
<!-- Created with Serif DrawPlus 11, 0, 0, 18 (Jul  5, 11:10:22) (http://www.serif.com) -->
<svg version="1.1" xmlns="http://www.w3.org/2000/svg" xmlns:xlink="http://www.w3.org/1999/xlink" width="794" height="559">
	<g id="Layer_1">
		<path id="dp_path002" fill="#1900ff" fill-rule="evenodd" d="M 496.757,482.711 L 496.757,490.511 C 496.757,492.204 496.944,493.256 497.313,493.665 C 497.813,494.248 498.572,494.539 499.588,494.539 L 500.617,494.539 L 500.617,495.284 L 489.073,495.284 L 489.073,494.539 L 490.089,494.539 C 491.229,494.539 492.045,494.171 492.536,493.429 C 492.8,493.019 492.932,492.044 492.932,490.511 L 492.932,473.179 C 492.932,471.485 492.753,470.433 492.395,470.024 C 491.88,469.441 491.108,469.151 490.089,469.151 L 489.073,469.151 L 489.073,468.405 L 498.928,468.405 C 501.331,468.405 503.231,468.652 504.619,469.151 C 506.005,469.644 507.173,470.48 508.125,471.659 C 509.076,472.836 509.553,474.231 509.553,475.847 C 509.553,478.043 508.832,479.827 507.387,481.201 C 505.945,482.579 503.904,483.267 501.267,483.267 C 500.62,483.267 499.923,483.219 499.171,483.128 C 498.42,483.036 497.615,482.897 496.757,482.711 Z M 496.757,481.584 C 497.455,481.716 498.071,481.815 498.609,481.881 C 499.151,481.947 499.608,481.98 499.991,481.98 C 501.359,481.98 502.536,481.445 503.528,480.379 C 504.52,479.312 505.017,477.932 505.017,476.236 C 505.017,475.071 504.78,473.988 504.307,472.989 C 503.836,471.987 503.165,471.239 502.296,470.741 C 501.429,470.244 500.444,469.996 499.34,469.996 C 498.671,469.996 497.811,470.121 496.757,470.376 Z "/>
		<g id="dp_group003">
			<path id="dp_path005" fill="black" fill-rule="evenodd" d="M 158.431,100.128 L 165.097,100.128 L 178.431,100.128 L 161.764,66.7947 L 145.097,100.128 Z "/>
			<path id="dp_path006" fill="black" fill-rule="evenodd" d="M 165.1,529.769 L 165.1,100.128 L 158.433,100.128 L 158.433,529.769 Z "/>
		</g>
		<g id="dp_group007">
			<path id="dp_path009" fill="black" fill-rule="evenodd" d="M 589.389,523.612 L 589.381,530.279 L 589.368,543.612 L 622.719,526.981 L 589.403,510.279 Z "/>
			<path id="dp_path010" fill="black" fill-rule="evenodd" d="M 159.74,529.832 L 589.381,530.281 L 589.389,523.615 L 159.748,523.165 Z "/>
		</g>
		<path id="dp_path011" fill="none" fill-rule="evenodd" stroke="#00ff0c" stroke-width="3.33333" d="M 314.477,421.725 C 318.84,439.381 356.724,455.647 340.659,527.648"/>
		<g id="dp_group012">
			<path id="dp_path015" fill="#2600ff" fill-rule="evenodd" d="M 481.944,522.88 L 481.944,529.547 L 481.944,542.88 L 515.277,526.213 L 481.944,509.547 Z "/>
			<path id="dp_path016" fill="#2600ff" fill-rule="evenodd" d="M 158.771,529.549 L 481.944,529.549 L 481.944,522.883 L 158.771,522.883 Z "/>
			<g id="dp_group017">
				<path id="dp_path019" fill="#2600ff" fill-rule="evenodd" d="M 429.109,343.272 L 432.799,348.825 L 440.176,359.931 L 458.717,327.603 L 421.731,332.167 Z "/>
				<path id="dp_path020" fill="#2600ff" fill-rule="evenodd" d="M 163.621,527.668 L 432.799,348.827 L 429.111,343.275 L 159.933,522.116 Z "/>
			</g>
		</g>
		<path id="dp_path021" fill="black" fill-rule="evenodd" d="M 169.004,20.2787 L 178.399,20.2787 L 178.399,21.024 L 177.884,21.024 C 177.539,21.024 177.037,21.176 176.373,21.4813 C 175.713,21.7827 175.111,22.2187 174.569,22.788 C 174.028,23.356 173.361,24.28 172.565,25.5627 L 166.087,35.6787 L 166.087,42.4867 C 166.087,44.1387 166.272,45.1707 166.648,45.58 C 167.159,46.1347 167.961,46.4133 169.061,46.4133 L 169.945,46.4133 L 169.945,47.1573 L 158.401,47.1573 L 158.401,46.4133 L 159.367,46.4133 C 160.517,46.4133 161.336,46.068 161.817,45.38 C 162.112,44.9573 162.261,43.992 162.261,42.4867 L 162.261,36.1893 L 154.901,24.8493 C 154.028,23.5387 153.439,22.7227 153.128,22.3947 C 152.816,22.0693 152.173,21.6773 151.195,21.22 C 150.931,21.088 150.544,21.024 150.044,21.024 L 150.044,20.2787 L 161.516,20.2787 L 161.516,21.024 L 160.92,21.024 C 160.301,21.024 159.725,21.1693 159.204,21.46 C 158.679,21.748 158.419,22.1853 158.419,22.764 C 158.419,23.2373 158.825,24.0947 159.633,25.3333 L 165.223,33.996 L 170.531,25.7093 C 171.327,24.4693 171.723,23.5493 171.723,22.9427 C 171.723,22.5707 171.628,22.2427 171.435,21.9547 C 171.241,21.664 170.968,21.4373 170.612,21.2707 C 170.253,21.1053 169.719,21.024 169.004,21.024 Z "/>
		<path id="dp_path022" fill="black" fill-rule="evenodd" d="M 656.119,524.241 L 661.891,532.867 C 663.491,535.244 664.676,536.747 665.451,537.373 C 666.223,537.999 667.205,538.348 668.396,538.412 L 668.396,539.157 L 656.823,539.157 L 656.823,538.412 C 657.588,538.399 658.156,538.321 658.528,538.175 C 658.807,538.056 659.033,537.877 659.212,537.633 C 659.392,537.389 659.48,537.143 659.48,536.892 C 659.48,536.588 659.419,536.287 659.3,535.981 C 659.209,535.759 658.844,535.179 658.211,534.245 L 653.647,527.396 L 648.035,534.563 C 647.439,535.325 647.08,535.836 646.961,536.093 C 646.843,536.351 646.785,536.615 646.785,536.892 C 646.785,537.312 646.961,537.66 647.32,537.939 C 647.676,538.216 648.356,538.372 649.361,538.412 L 649.361,539.157 L 639.828,539.157 L 639.828,538.412 C 640.503,538.348 641.084,538.209 641.576,537.996 C 642.395,537.653 643.173,537.193 643.915,536.611 C 644.656,536.032 645.503,535.139 646.453,533.94 L 652.699,525.968 L 647.503,518.205 C 646.061,516.1 644.839,514.723 643.833,514.065 C 642.828,513.409 641.671,513.064 640.364,513.023 L 640.364,512.279 L 652.835,512.279 L 652.835,513.023 C 651.779,513.064 651.053,513.229 650.664,513.531 C 650.272,513.828 650.079,514.16 650.079,514.523 C 650.079,515.003 650.397,515.708 651.031,516.628 L 655.167,522.816 L 659.889,516.787 C 660.444,516.076 660.787,515.592 660.912,515.328 C 661.037,515.068 661.101,514.797 661.101,514.519 C 661.101,514.245 661.02,514.001 660.861,513.792 C 660.664,513.517 660.415,513.321 660.109,513.209 C 659.805,513.097 659.175,513.036 658.224,513.023 L 658.224,512.279 L 667.777,512.279 L 667.777,513.023 C 667.025,513.064 666.409,513.183 665.932,513.379 C 665.217,513.68 664.564,514.089 663.968,514.604 C 663.373,515.115 662.533,516.063 661.449,517.448 Z "/>
		<path id="dp_path023" fill="#1900ff" fill-rule="evenodd" d="M 480.915,312.095 L 480.915,319.895 C 480.915,321.587 481.101,322.64 481.469,323.049 C 481.971,323.632 482.729,323.923 483.744,323.923 L 484.773,323.923 L 484.773,324.668 L 473.231,324.668 L 473.231,323.923 L 474.245,323.923 C 475.387,323.923 476.203,323.553 476.693,322.812 C 476.957,322.403 477.089,321.428 477.089,319.895 L 477.089,302.561 C 477.089,300.869 476.909,299.816 476.551,299.407 C 476.036,298.825 475.264,298.533 474.245,298.533 L 473.231,298.533 L 473.231,297.789 L 483.084,297.789 C 485.488,297.789 487.387,298.036 488.775,298.533 C 490.163,299.028 491.331,299.864 492.283,301.043 C 493.233,302.22 493.711,303.615 493.711,305.229 C 493.711,307.427 492.989,309.211 491.544,310.585 C 490.103,311.963 488.061,312.649 485.424,312.649 C 484.777,312.649 484.08,312.603 483.328,312.511 C 482.577,312.42 481.771,312.281 480.915,312.095 Z M 480.915,310.968 C 481.612,311.1 482.228,311.197 482.767,311.265 C 483.308,311.329 483.765,311.364 484.148,311.364 C 485.515,311.364 486.693,310.829 487.685,309.763 C 488.677,308.696 489.175,307.315 489.175,305.619 C 489.175,304.455 488.937,303.371 488.464,302.372 C 487.993,301.371 487.323,300.623 486.453,300.124 C 485.587,299.627 484.601,299.38 483.497,299.38 C 482.827,299.38 481.968,299.505 480.915,299.759 Z "/>
		<path id="dp_path024" fill="#1900ff" fill-rule="evenodd" d="M 498.307,308.757 L 497.236,302.891 C 496.935,301.263 496.783,300.165 496.783,299.596 C 496.783,298.753 496.956,298.137 497.301,297.755 C 497.643,297.372 498.113,297.18 498.709,297.18 C 499.308,297.18 499.799,297.376 500.192,297.765 C 500.581,298.155 500.777,298.665 500.777,299.303 C 500.777,299.789 500.605,300.991 500.26,302.907 L 499.187,308.757 Z "/>
		<path id="dp_path025" fill="#00c400" fill-rule="evenodd" d="M 366.672,444.924 C 368.903,444.924 370.785,446.231 372.319,448.841 C 373.852,451.451 374.617,454.851 374.617,459.041 C 374.617,463.56 373.792,467.121 372.14,469.725 C 370.488,472.328 368.581,473.631 366.415,473.631 C 364.285,473.631 362.413,472.365 360.796,469.836 C 359.177,467.304 358.368,463.872 358.368,459.535 C 358.368,455.188 359.171,451.664 360.776,448.969 C 362.38,446.272 364.347,444.924 366.672,444.924 Z M 370.928,458.601 C 370.928,450.249 369.468,446.076 366.553,446.076 C 363.559,446.076 362.059,450.249 362.059,458.601 Z M 362.059,459.82 C 362.059,464.145 362.457,467.339 363.26,469.393 C 364.063,471.451 365.139,472.48 366.493,472.48 C 369.424,472.48 370.9,468.259 370.928,459.82 Z "/>
	</g>
</svg>