<?xml version="1.0" encoding="UTF-8" standalone="no"?>
<!-- Created with Serif DrawPlus 11, 0, 0, 18 (Jul  5, 11:10:22) (http://www.serif.com) -->

<svg
   xmlns:dc="http://purl.org/dc/elements/1.1/"
   xmlns:cc="http://creativecommons.org/ns#"
   xmlns:rdf="http://www.w3.org/1999/02/22-rdf-syntax-ns#"
   xmlns:svg="http://www.w3.org/2000/svg"
   xmlns="http://www.w3.org/2000/svg"
   xmlns:sodipodi="http://sodipodi.sourceforge.net/DTD/sodipodi-0.dtd"
   xmlns:inkscape="http://www.inkscape.org/namespaces/inkscape"
   version="1.1"
   width="793.7"
   height="559.369"
   id="svg2"
   inkscape:version="0.48.1 "
   sodipodi:docname="wallfollow.svg">
  <metadata
     id="metadata137">
    <rdf:RDF>
      <cc:Work
         rdf:about="">
        <dc:format>image/svg+xml</dc:format>
        <dc:type
           rdf:resource="http://purl.org/dc/dcmitype/StillImage" />
      </cc:Work>
    </rdf:RDF>
  </metadata>
  <defs
     id="defs135" />
  <sodipodi:namedview
     pagecolor="#ffffff"
     bordercolor="#666666"
     borderopacity="1"
     objecttolerance="10"
     gridtolerance="10"
     guidetolerance="10"
     inkscape:pageopacity="0"
     inkscape:pageshadow="2"
     inkscape:window-width="1920"
     inkscape:window-height="1028"
     id="namedview133"
     showgrid="false"
     inkscape:zoom="0.73571494"
     inkscape:cx="457.29647"
     inkscape:cy="204.76048"
     inkscape:window-x="-8"
     inkscape:window-y="-8"
     inkscape:window-maximized="1"
     inkscape:current-layer="svg2" />
  <g
     id="Layer_1"
     transform="matrix(1.185744,0,0,1.2697108,-76.667226,-75.731585)">
    <g
       id="dp_group001">
      <path
         id="dp_path002"
         d="m 385.432,457.603 13.6,0 0,12.72 -13.6,0 z"
         inkscape:connector-curvature="0"
         style="fill:#f8ff3f;fill-rule:evenodd" />
      <g
         id="dp_group003">
        <g
           id="dp_group004">
          <path
             id="dp_path005"
             d="m 398.365,458.269 0,11.387 -12.266,0 0,-11.387 12.266,0 1.334,-1.333 -14.934,0 0,14.053 14.934,0 0,-14.053 z"
             inkscape:connector-curvature="0"
             style="fill:#f8ff3f" />
        </g>
      </g>
    </g>
    <g
       id="dp_group006">
      <path
         id="dp_path007"
         d="m 385.28,472.24 13.6,0 0,12.72 -13.6,0 z"
         inkscape:connector-curvature="0"
         style="fill:#f8ff3f;fill-rule:evenodd" />
      <g
         id="dp_group008">
        <g
           id="dp_group009">
          <path
             id="dp_path010"
             d="m 398.213,472.907 0,11.386 -12.266,0 0,-11.386 12.266,0 1.334,-1.334 -14.934,0 0,14.054 14.934,0 0,-14.054 z"
             inkscape:connector-curvature="0"
             style="fill:#f8ff3f" />
        </g>
      </g>
    </g>
    <g
       id="dp_group011">
      <path
         id="dp_path012"
         d="m 370.16,457.6 13.6,0 0,12.72 -13.6,0 z"
         inkscape:connector-curvature="0"
         style="fill:#f8ff3f;fill-rule:evenodd" />
      <g
         id="dp_group013">
        <g
           id="dp_group014">
          <path
             id="dp_path015"
             d="m 383.093,458.267 0,11.386 -12.266,0 0,-11.386 12.266,0 1.334,-1.334 -14.934,0 0,14.054 14.934,0 0,-14.054 z"
             inkscape:connector-curvature="0"
             style="fill:#f8ff3f" />
        </g>
      </g>
    </g>
    <g
       id="dp_group016">
      <path
         id="dp_path017"
         d="m 369.84,442.8 13.6,0 0,12.72 -13.6,0 z"
         inkscape:connector-curvature="0"
         style="fill:#f8ff3f;fill-rule:evenodd" />
      <g
         id="dp_group018">
        <g
           id="dp_group019">
          <path
             id="dp_path020"
             d="m 382.773,443.467 0,11.386 -12.266,0 0,-11.386 12.266,0 1.334,-1.334 -14.934,0 0,14.054 14.934,0 0,-14.054 z"
             inkscape:connector-curvature="0"
             style="fill:#f8ff3f" />
        </g>
      </g>
    </g>
    <g
       id="dp_group021">
      <path
         id="dp_path022"
         d="m 354.8,442.8 13.6,0 0,12.72 -13.6,0 z"
         inkscape:connector-curvature="0"
         style="fill:#f8ff3f;fill-rule:evenodd" />
      <g
         id="dp_group023">
        <g
           id="dp_group024">
          <path
             id="dp_path025"
             d="m 367.733,443.467 0,11.386 -12.266,0 0,-11.386 12.266,0 1.334,-1.334 -14.934,0 0,14.054 14.934,0 0,-14.054 z"
             inkscape:connector-curvature="0"
             style="fill:#f8ff3f" />
        </g>
      </g>
    </g>
    <g
       id="dp_group026">
      <path
         id="dp_path027"
         d="m 354.8,428.08 13.6,0 0,12.72 -13.6,0 z"
         inkscape:connector-curvature="0"
         style="fill:#f8ff3f;fill-rule:evenodd" />
      <g
         id="dp_group028">
        <g
           id="dp_group029">
          <path
             id="dp_path030"
             d="m 367.733,428.747 0,11.386 -12.266,0 0,-11.386 12.266,0 1.334,-1.334 -14.934,0 0,14.054 14.934,0 0,-14.054 z"
             inkscape:connector-curvature="0"
             style="fill:#f8ff3f" />
        </g>
      </g>
    </g>
    <g
       id="dp_group031">
      <path
         id="dp_path032"
         d="m 339.6,428 13.6,0 0,12.72 -13.6,0 z"
         inkscape:connector-curvature="0"
         style="fill:#f8ff3f;fill-rule:evenodd" />
      <g
         id="dp_group033">
        <g
           id="dp_group034">
          <path
             id="dp_path035"
             d="m 352.533,428.667 0,11.386 -12.266,0 0,-11.386 12.266,0 1.334,-1.334 -14.934,0 0,14.054 14.934,0 0,-14.054 z"
             inkscape:connector-curvature="0"
             style="fill:#f8ff3f" />
        </g>
      </g>
    </g>
    <g
       id="dp_group036">
      <path
         id="dp_path037"
         d="m 339.04,413.28 13.6,0 0,12.72 -13.6,0 z"
         inkscape:connector-curvature="0"
         style="fill:#f8ff3f;fill-rule:evenodd" />
      <g
         id="dp_group038">
        <g
           id="dp_group039">
          <path
             id="dp_path040"
             d="m 351.973,413.947 0,11.386 -12.266,0 0,-11.386 12.266,0 1.334,-1.334 -14.934,0 0,14.054 14.934,0 0,-14.054 z"
             inkscape:connector-curvature="0"
             style="fill:#f8ff3f" />
        </g>
      </g>
    </g>
    <g
       id="dp_group041">
      <g
         id="dp_group042">
        <path
           id="dp_path043"
           d="m 79.7387,457.781 640.6923,-1.006 0.021,13.477 -640.6907,1.007 -0.0226,-13.478 -1.3334,-1.33 0.0254,16.141 643.3543,-1.009 -0.024,-16.142 -643.3557,1.01 z"
           inkscape:connector-curvature="0"
           style="fill:#e9e9e9" />
      </g>
      <g
         id="dp_group044">
        <path
           id="dp_path045"
           d="m 79.692,428.163 640.692,-1.007 0.021,13.477 -640.6903,1.007 -0.0227,-13.477 -1.3333,-1.331 0.0253,16.141 643.355,-1.009 -0.024,-16.141 -643.3563,1.009 z"
           inkscape:connector-curvature="0"
           style="fill:#e9e9e9" />
      </g>
      <g
         id="dp_group046">
        <path
           id="dp_path047"
           d="m 79.6467,398.544 640.6903,-1.007 0.022,13.478 -640.691,1.006 -0.0213,-13.477 -1.3334,-1.331 0.024,16.142 643.3547,-1.01 -0.024,-16.141 -643.3547,1.009 z"
           inkscape:connector-curvature="0"
           style="fill:#e9e9e9" />
      </g>
      <g
         id="dp_group048">
        <path
           id="dp_path049"
           d="m 79.6,368.925 640.691,-1.006 0.022,13.477 -640.6917,1.007 -0.0213,-13.478 -1.3333,-1.33 0.024,16.141 643.3563,-1.009 -0.026,-16.142 -643.3543,1.01 z"
           inkscape:connector-curvature="0"
           style="fill:#e9e9e9" />
      </g>
      <g
         id="dp_group050">
        <path
           id="dp_path051"
           d="m 79.5533,339.307 640.6907,-1.007 0.023,13.477 -640.6923,1.007 -0.0214,-13.477 -1.3333,-1.331 0.024,16.141 643.356,-1.009 -0.025,-16.141 -643.355,1.009 z"
           inkscape:connector-curvature="0"
           style="fill:#e9e9e9" />
      </g>
      <g
         id="dp_group052">
        <path
           id="dp_path053"
           d="m 79.5067,309.688 640.6903,-1.007 0.023,13.478 -640.692,1.006 -0.0213,-13.477 -1.3334,-1.331 0.024,16.142 643.3557,-1.01 -0.025,-16.141 -643.3547,1.009 z"
           inkscape:connector-curvature="0"
           style="fill:#e9e9e9" />
      </g>
      <g
         id="dp_group054">
        <path
           id="dp_path055"
           d="m 79.46,280.069 640.691,-1.006 0.022,13.477 -640.6917,1.007 -0.0213,-13.478 -1.3333,-1.33 0.024,16.141 643.3563,-1.009 -0.026,-16.142 -643.3543,1.01 z"
           inkscape:connector-curvature="0"
           style="fill:#e9e9e9" />
      </g>
      <g
         id="dp_group056">
        <path
           id="dp_path057"
           d="m 79.4133,250.451 640.6917,-1.007 0.022,13.477 -640.691,1.007 -0.0227,-13.477 -1.3333,-1.331 0.0253,16.141 643.3547,-1.009 -0.024,-16.141 -643.356,1.009 z"
           inkscape:connector-curvature="0"
           style="fill:#e9e9e9" />
      </g>
      <g
         id="dp_group058">
        <path
           id="dp_path059"
           d="m 79.3667,220.832 640.6923,-1.007 0.021,13.478 -640.6907,1.006 -0.0226,-13.477 -1.3334,-1.331 0.0254,16.142 643.3543,-1.01 -0.024,-16.141 -643.3557,1.009 z"
           inkscape:connector-curvature="0"
           style="fill:#e9e9e9" />
      </g>
      <g
         id="dp_group060">
        <path
           id="dp_path061"
           d="m 79.32,191.213 640.692,-1.006 0.021,13.477 -640.6903,1.007 -0.0227,-13.478 -1.3333,-1.33 0.0253,16.141 643.355,-1.009 -0.024,-16.142 -643.3563,1.01 z"
           inkscape:connector-curvature="0"
           style="fill:#e9e9e9" />
      </g>
      <g
         id="dp_group062">
        <path
           id="dp_path063"
           d="m 79.2733,161.595 640.6917,-1.007 0.022,13.477 -640.691,1.007 -0.0227,-13.477 -1.3333,-1.331 0.0253,16.141 643.3547,-1.009 -0.024,-16.141 -643.356,1.009 z"
           inkscape:connector-curvature="0"
           style="fill:#e9e9e9" />
      </g>
      <g
         id="dp_group064">
        <path
           id="dp_path065"
           d="m 79.228,131.976 640.691,-1.007 0.021,13.478 -640.6907,1.006 -0.0213,-13.477 -1.3333,-1.331 0.024,16.142 643.3543,-1.01 -0.024,-16.141 -643.3543,1.009 z"
           inkscape:connector-curvature="0"
           style="fill:#e9e9e9" />
      </g>
      <g
         id="dp_group066">
        <path
           id="dp_path067"
           d="m 79.1813,102.357 640.6907,-1.006 0.021,13.477 -640.6903,1.007 -0.0214,-13.478 -1.3333,-1.33 0.024,16.141 643.355,-1.009 -0.024,-16.142 -643.355,1.01 z"
           inkscape:connector-curvature="0"
           style="fill:#e9e9e9" />
      </g>
      <g
         id="dp_group068">
        <path
           id="dp_path069"
           d="M 79.1347,72.7387 719.825,71.732 719.848,85.2093 79.156,86.216 79.1347,72.7387 77.8013,71.408 77.8253,87.5493 721.181,86.54 721.156,70.3987 77.8013,71.408 z"
           inkscape:connector-curvature="0"
           style="fill:#e9e9e9" />
      </g>
    </g>
    <g
       id="dp_group070">
      <g
         id="dp_group071">
        <path
           id="dp_path072"
           d="m 93.028,72.6667 0,414.6663 -13.9613,0 0,-414.6663 13.9613,0 1.3333,-1.3334 -16.628,0 0,417.3337 16.628,0 0,-417.3337 z"
           inkscape:connector-curvature="0"
           style="fill:#e9e9e9" />
      </g>
      <g
         id="dp_group073">
        <path
           id="dp_path074"
           d="m 123.617,72.6667 0,414.6663 -13.961,0 0,-414.6663 13.961,0 1.334,-1.3334 -16.628,0 0,417.3337 16.628,0 0,-417.3337 z"
           inkscape:connector-curvature="0"
           style="fill:#e9e9e9" />
      </g>
      <g
         id="dp_group075">
        <path
           id="dp_path076"
           d="m 154.207,72.6667 0,414.6663 -13.962,0 0,-414.6663 13.962,0 1.333,-1.3334 -16.628,0 0,417.3337 16.628,0 0,-417.3337 z"
           inkscape:connector-curvature="0"
           style="fill:#e9e9e9" />
      </g>
      <g
         id="dp_group077">
        <path
           id="dp_path078"
           d="m 184.796,72.6667 0,414.6663 -13.961,0 0,-414.6663 13.961,0 1.333,-1.3334 -16.628,0 0,417.3337 16.628,0 0,-417.3337 z"
           inkscape:connector-curvature="0"
           style="fill:#e9e9e9" />
      </g>
      <g
         id="dp_group079">
        <path
           id="dp_path080"
           d="m 215.385,72.6667 0,414.6663 -13.961,0 0,-414.6663 13.961,0 1.334,-1.3334 -16.628,0 0,417.3337 16.628,0 0,-417.3337 z"
           inkscape:connector-curvature="0"
           style="fill:#e9e9e9" />
      </g>
      <g
         id="dp_group081">
        <path
           id="dp_path082"
           d="m 245.975,72.6667 0,414.6663 -13.962,0 0,-414.6663 13.962,0 1.333,-1.3334 -16.628,0 0,417.3337 16.628,0 0,-417.3337 z"
           inkscape:connector-curvature="0"
           style="fill:#e9e9e9" />
      </g>
      <g
         id="dp_group083">
        <path
           id="dp_path084"
           d="m 276.564,72.6667 0,414.6663 -13.961,0 0,-414.6663 13.961,0 1.333,-1.3334 -16.628,0 0,417.3337 16.628,0 0,-417.3337 z"
           inkscape:connector-curvature="0"
           style="fill:#e9e9e9" />
      </g>
      <g
         id="dp_group085">
        <path
           id="dp_path086"
           d="m 307.153,72.6667 0,414.6663 -13.961,0 0,-414.6663 13.961,0 1.334,-1.3334 -16.628,0 0,417.3337 16.628,0 0,-417.3337 z"
           inkscape:connector-curvature="0"
           style="fill:#e9e9e9" />
      </g>
      <g
         id="dp_group087">
        <path
           id="dp_path088"
           d="m 337.743,72.6667 0,414.6663 -13.962,0 0,-414.6663 13.962,0 1.333,-1.3334 -16.628,0 0,417.3337 16.628,0 0,-417.3337 z"
           inkscape:connector-curvature="0"
           style="fill:#e9e9e9" />
      </g>
      <g
         id="dp_group089">
        <path
           id="dp_path090"
           d="m 368.332,72.6667 0,414.6663 -13.961,0 0,-414.6663 13.961,0 1.333,-1.3334 -16.628,0 0,417.3337 16.628,0 0,-417.3337 z"
           inkscape:connector-curvature="0"
           style="fill:#e9e9e9" />
      </g>
      <g
         id="dp_group091">
        <path
           id="dp_path092"
           d="m 398.921,72.6667 0,414.6663 -13.961,0 0,-414.6663 13.961,0 1.334,-1.3334 -16.628,0 0,417.3337 16.628,0 0,-417.3337 z"
           inkscape:connector-curvature="0"
           style="fill:#e9e9e9" />
      </g>
      <g
         id="dp_group093">
        <path
           id="dp_path094"
           d="m 429.511,72.6667 0,414.6663 -13.962,0 0,-414.6663 13.962,0 1.333,-1.3334 -16.628,0 0,417.3337 16.628,0 0,-417.3337 z"
           inkscape:connector-curvature="0"
           style="fill:#e9e9e9" />
      </g>
      <g
         id="dp_group095">
        <path
           id="dp_path096"
           d="m 460.1,72.6667 0,414.6663 -13.961,0 0,-414.6663 13.961,0 1.333,-1.3334 -16.628,0 0,417.3337 16.628,0 0,-417.3337 z"
           inkscape:connector-curvature="0"
           style="fill:#e9e9e9" />
      </g>
      <g
         id="dp_group097">
        <path
           id="dp_path098"
           d="m 490.689,72.6667 0,414.6663 -13.961,0 0,-414.6663 13.961,0 1.334,-1.3334 -16.628,0 0,417.3337 16.628,0 0,-417.3337 z"
           inkscape:connector-curvature="0"
           style="fill:#e9e9e9" />
      </g>
      <g
         id="dp_group099">
        <path
           id="dp_path100"
           d="m 521.279,72.6667 0,414.6663 -13.962,0 0,-414.6663 13.962,0 1.333,-1.3334 -16.628,0 0,417.3337 16.628,0 0,-417.3337 z"
           inkscape:connector-curvature="0"
           style="fill:#e9e9e9" />
      </g>
      <g
         id="dp_group101">
        <path
           id="dp_path102"
           d="m 551.868,72.6667 0,414.6663 -13.961,0 0,-414.6663 13.961,0 1.333,-1.3334 -16.628,0 0,417.3337 16.628,0 0,-417.3337 z"
           inkscape:connector-curvature="0"
           style="fill:#e9e9e9" />
      </g>
      <g
         id="dp_group103">
        <path
           id="dp_path104"
           d="m 582.457,72.6667 0,414.6663 -13.961,0 0,-414.6663 13.961,0 1.334,-1.3334 -16.628,0 0,417.3337 16.628,0 0,-417.3337 z"
           inkscape:connector-curvature="0"
           style="fill:#e9e9e9" />
      </g>
      <g
         id="dp_group105">
        <path
           id="dp_path106"
           d="m 613.047,72.6667 0,414.6663 -13.962,0 0,-414.6663 13.962,0 1.333,-1.3334 -16.628,0 0,417.3337 16.628,0 0,-417.3337 z"
           inkscape:connector-curvature="0"
           style="fill:#e9e9e9" />
      </g>
      <g
         id="dp_group107">
        <path
           id="dp_path108"
           d="m 643.636,72.6667 0,414.6663 -13.961,0 0,-414.6663 13.961,0 1.333,-1.3334 -16.628,0 0,417.3337 16.628,0 0,-417.3337 z"
           inkscape:connector-curvature="0"
           style="fill:#e9e9e9" />
      </g>
      <g
         id="dp_group109">
        <path
           id="dp_path110"
           d="m 674.225,72.6667 0,414.6663 -13.961,0 0,-414.6663 13.961,0 1.334,-1.3334 -16.628,0 0,417.3337 16.628,0 0,-417.3337 z"
           inkscape:connector-curvature="0"
           style="fill:#e9e9e9" />
      </g>
      <g
         id="dp_group111">
        <path
           id="dp_path112"
           d="m 704.815,72.6667 0,414.6663 -13.962,0 0,-414.6663 13.962,0 1.333,-1.3334 -16.628,0 0,417.3337 16.628,0 0,-417.3337 z"
           inkscape:connector-curvature="0"
           style="fill:#e9e9e9" />
      </g>
    </g>
    <path
       id="dp_path113"
       d="M 0,0 0,0"
       inkscape:connector-curvature="0"
       style="fill:none;stroke:#ff0000;stroke-width:1.33333004;stroke-dasharray:3.2, 3.2" />
    <path
       id="dp_path114"
       d="m 426.613,49.28 0,0 z"
       inkscape:connector-curvature="0"
       style="fill:#ffffff;fill-opacity:0;fill-rule:evenodd;stroke:#000000;stroke-width:6.66666985" />
    <path
       id="dp_path115"
       d="m 272.173,387.267 69.372,0 0,35.677 -69.372,0 z"
       inkscape:connector-curvature="0"
       style="fill:#6761ff;fill-rule:evenodd;stroke:#6761ff;stroke-width:1.33333004" />
    <path
       id="dp_path116"
       d="M 76.4,128.536 399.703,486.664"
       inkscape:connector-curvature="0"
       style="fill:none;stroke:#ff0000;stroke-width:1.33333004;stroke-dasharray:3.2, 3.2" />
    <path
       id="dp_path117"
       d="m 74.6667,70.036 648.6663,0 0,419.333 -648.6663,0 z"
       inkscape:connector-curvature="0"
       style="fill:none;stroke:#000000;stroke-width:10" />
    <g
       id="dp_group118">
      <g
         id="dp_group119">
        <path
           id="dp_path120"
           d="m 392.467,421.415 0,1.333 0,2.667 6.666,-3.334 -6.666,-3.333 z"
           inkscape:connector-curvature="0"
           style="fill:#fe9400;fill-rule:evenodd" />
        <path
           id="dp_path121"
           d="m 392.467,421.415 -46.65,0 0,1.333 46.65,0 z"
           inkscape:connector-curvature="0"
           style="fill:#fe9400" />
      </g>
    </g>
    <g
       id="dp_group122">
      <g
         id="dp_group123">
        <path
           id="dp_path124"
           d="m 341.933,473.793 -1.333,0 -2.667,0 3.334,6.667 3.333,-6.667 z"
           inkscape:connector-curvature="0"
           style="fill:#fe9400;fill-rule:evenodd" />
        <path
           id="dp_path125"
           d="m 341.933,473.793 0,-46.337 -1.333,0 0,46.337 z"
           inkscape:connector-curvature="0"
           style="fill:#fe9400" />
      </g>
    </g>
    <path
       id="dp_path126"
       d="m 272.4,405.6 68.8,0"
       inkscape:connector-curvature="0"
       style="fill:none;stroke:#000000;stroke-width:1.33333004" />
    <path
       id="dp_path127"
       d="m 327.636,387.719 12.968,17.682"
       inkscape:connector-curvature="0"
       style="fill:none;stroke:#000000;stroke-width:1.33333004" />
    <path
       id="dp_path128"
       d="m 327.04,422.16 13.6,-16.4"
       inkscape:connector-curvature="0"
       style="fill:none;stroke:#000000;stroke-width:1.33333004" />
  </g>
</svg>
